# AST/ASF file generated using VICON BodyLanguage
# -----------------------------------------------
:version 1.10
:name VICON
:units
  mass 1.0
  length 0.45
  angle deg
:documentation
   .ast/.asf automatically generated from VICON data using
   VICON BodyBuilder and BodyLanguage model FoxedUp or BRILLIANT.MOD
:root
   order TX TY TZ RX RY RZ
   axis XYZ
   position 0 0 0  
   orientation 0 0 0 
:bonedata
  begin
     id 1 
     name lhipjoint
     direction 0.635376 -0.686425 0.353719 
     length 2.47244 
     axis 0 0 0  XYZ
  end
  begin
     id 2 
     name lfemur
     direction 0.34202 -0.939693 0  
     length 7.25268  
     axis 0 0 20  XYZ
    dof rx ry rz
    limits (-160.0 20.0)
           (-70.0 70.0)
           (-60.0 70.0)
  end
  begin
     id 3 
     name ltibia
     direction 0.34202 -0.939693 0   
     length 7.6767   
     axis 0 0 20   XYZ
    dof rx
    limits (-10.0 170.0)
  end
  begin
     id 4 
     name lfoot
     direction 0.0803374 -0.220725 0.972022   
     length 2.22945   
     axis -90 7.62852e-016 20   XYZ
    dof rx rz
    limits (-45.0 90.0)
           (-70.0 20.0)
  end
  begin
     id 5 
     name ltoes
     direction 1.53579e-011 -4.21994e-011 1   
     length 1.11848   
     axis -90 7.62852e-016 20   XYZ
    dof rx
    limits (-90.0 20.0)
  end
  begin
     id 6 
     name rhipjoint
     direction -0.664428 -0.664335 0.342336   
     length 2.55466  
     axis 0 0 0  XYZ 
  end
  begin
     id 7 
     name rfemur
     direction -0.34202 -0.939693 0   
     length 6.83172   
     axis 0 0 -20   XYZ
    dof rx ry rz
    limits (-160.0 20.0)
           (-70.0 70.0)
           (-70.0 60.0)
  end
  begin
     id 8 
     name rtibia
     direction -0.34202 -0.939693 0   
     length 7.62692   
     axis 0 0 -20   XYZ
    dof rx
    limits (-10.0 170.0)
 end
 begin
     id 9 
     name rfoot
     direction -0.0949276 -0.260811 0.960711   
     length 2.19684  
     axis -90 -7.62852e-016 -20   XYZ
    dof rx rz
    limits (-45.0 90.0)
           (-20.0 70.0)
  end
  begin
     id 10 
     name rtoes
     direction -1.53543e-011 -4.2183e-011 1   
     length 1.09848   
     axis -90 -7.62852e-016 -20   XYZ
    dof rx
    limits (-90.0 20.0)
  end
  begin
     id 11 
     name lowerback
     direction 0.0118782 0.999815 -0.0151555   
     length 2.15772   
     axis 0 0 0   XYZ
    dof rx ry rz
    limits (-20.0 45.0)
           (-30.0 30.0)
           (-30.0 30.0)
  end
  begin
     id 12 
     name upperback
     direction 0.00130825 0.999065 0.0432113   
     length 2.14863   
     axis 0 0 0   XYZ
    dof rx ry rz
    limits (-20.0 45.0)
           (-30.0 30.0)
           (-30.0 30.0)
  end
  begin
     id 13 
     name thorax
     direction -0.00347005 0.998773 0.0494011   
     length 2.14936   
     axis 0 0 0   XYZ
    dof rx ry rz
    limits (-20.0 45.0)
           (-30.0 30.0)
           (-30.0 30.0)
  end
  begin
     id 14 
     name lowerneck
     direction -0.0262159 0.99424 0.103921   
     length 1.69373   
     axis 0 0 0   XYZ
    dof rx ry rz
    limits (-20.0 45.0)
           (-30.0 30.0)
           (-30.0 30.0)
  end
  begin
     id 15 
     name upperneck
     direction 0.0353511 0.977394 -0.20845   
     length 1.70857   
     axis 0 0 0   XYZ
    dof rx ry rz
    limits (-20.0 45.0)
           (-30.0 30.0)
           (-30.0 30.0)
  end
  begin
     id 16
     name head
     direction 0.0139214 0.996594 -0.0812836  
     length 1.72777  
     axis 0 0 0   XYZ
    dof rx ry rz
    limits (-20.0 45.0)
           (-30.0 30.0)
           (-30.0 30.0)
  end
  begin
     id 17 
     name lclavicle
     direction 0.841247 0.537205 -0.0609508  
     length 3.55371  
     axis 0 0 0   XYZ
    dof ry rz
    limits (-20.0 10.0)
           (0.0 20.0)
  end
  begin
     id 18 
     name lhumerus
     direction 1 -4.48964e-011 1.60116e-018   
     length 4.91377   
     axis -180 -30 -90   XYZ
    dof rx ry rz
    limits (-60.0 90.0)
           (-90.0 90.0)
           (-90.0 90.0)
  end
  begin
     id 19
     name lradius
     direction 1 -4.48989e-011 -8.93847e-027   
     length 3.00291   
     axis -180 -30 -90   XYZ
    dof rx
    limits (-10.0 170.0)
  end
  begin
     id 20
     name lwrist
     direction 1 -4.48932e-011 -7.31504e-027   
     length 1.50145   
     axis 5.74121e-015 90 90   XYZ
    dof ry
    limits (-180.0 0.0)
 end
  begin
     id 21 
     name lhand
     direction 1 -4.48971e-011 -1.46301e-026   
     length 0.450922   
     axis 9.33524e-015 90 90   XYZ
    dof rx rz
    limits (-90.0 90.0)
           (-45.0 45.0)
  end
  begin
     id 22 
     name lfingers
     direction 1 -4.49039e-011 -2.92602e-026   
     length 0.363545   
     axis 1.86705e-014 90 90   XYZ
    dof rx
    limits (0.0 90.0)
  end
  begin
     id 23
     name lthumb
     direction 0.707107 -6.34941e-011 0.707107   
     length 0.52198   
     axis -90 45 2.85299e-015   XYZ
    dof rx rz
    limits (-45.0 45.0)
           (-45.0 45.0)
  end
  begin
     id 24 
     name rclavicle
     direction -0.825079 0.56158 -0.0622297   
     length 3.39909  
     axis 0 0 0   XYZ 
    dof ry rz
    limits (-10.0 20.0)
           (-20.0 0.0)
  end
  begin
     id 25 
     name rhumerus
     direction -1 -4.48965e-011 1.61691e-027  
     length 4.86725   
     axis -180 30 90   XYZ
    dof rx ry rz
    limits (-90.0 60.0)
           (-90.0 90.0)
           (-90.0 90.0)
  end
  begin
     id 26 
     name rradius
     direction -1 -4.48964e-011 -2.25776e-027   
     length 3.17144   
     axis -180 30 90   XYZ
    dof rx
    limits (-10.0 170.0)
  end
  begin
     id 27 
     name rwrist
     direction -1 -4.48961e-011 -7.31504e-027   
     length 1.58572   
     axis 5.74121e-015 -90 -90   XYZ
    dof ry
    limits (-180.0 0.0)
  end
  begin
     id 28
     name rhand
     direction -1 -4.49013e-011 -1.46301e-026   
     length 0.419368   
     axis 9.33524e-015 -90 -90   XYZ
    dof rx rz
    limits (-90.0 90.0)
           (-45.0 45.0)
  end
  begin
     id 29
     name rfingers
     direction -1 -4.489e-011 -2.92602e-026   
     length 0.338105   
     axis 1.86705e-014 -90 -90   XYZ
    dof rx
    limits (0.0 90.0)
  end
  begin
     id 30
     name rthumb
     direction -0.707107 -6.35022e-011 0.707107   
     length 0.485453   
     axis -90 -45 -2.85299e-015   XYZ
    dof rx rz
    limits (-45.0 45.0)
           (-45.0 45.0)
  end
:hierarchy
  begin
    root lhipjoint rhipjoint lowerback
    lhipjoint lfemur
    lfemur ltibia
    ltibia lfoot
    lfoot ltoes
    rhipjoint rfemur
    rfemur rtibia
    rtibia rfoot
    rfoot rtoes
    lowerback upperback
    upperback thorax
    thorax lowerneck lclavicle rclavicle
    lowerneck upperneck
    upperneck head
    lclavicle lhumerus
    lhumerus lradius
    lradius lwrist
    lwrist lhand lthumb
    lhand lfingers
    rclavicle rhumerus
    rhumerus rradius
    rradius rwrist
    rwrist rhand rthumb
    rhand rfingers
  end

#!OML:ASF H:\Swim 2\Project 1\Capture day 1\Session 1\male.ASF
:FULLY-SPECIFIED
:DEGREES
1057
root -0.0318122 14.2067 7.09333 108.445 4.77034 0.490793
lowerback -24.8423 0.510968 -6.11728
upperback -2.12519 2.00877 3.73549
thorax 11.1599 0.574047 8.48839
lowerneck -1.86287 -2.66677 -1.50408
upperneck 30.5112 -2.23735 -3.83267
head 9.9441 -1.42038 -1.25704
rclavicle -3.10104e-014 -4.36829e-014
rhumerus 86.5472 -12.2755 -20.3991
rradius 31.9843
rwrist -17.8144
rhand -39.7053 3.21573
rfingers 7.12502
rthumb -12.6837 -26.3791
lclavicle -3.10104e-014 -4.36829e-014
lhumerus -265.285 4.6739 -311.302
lradius 25.2682
lwrist 12.8738
lhand -39.9112 -17.9955
lfingers 7.12502
lthumb -12.8822 11.5869
rfemur -47.6259 2.90627 17.2995
rtibia 22.0107
rfoot 1.52766 -9.75082
rtoes 6.52254
lfemur -50.6957 -12.145 -13.391
ltibia 29.5354
lfoot -5.52436 10.4473
ltoes -3.45983
1058
root -0.0357999 14.2007 7.08747 108.152 4.63737 0.500283
lowerback -24.7082 0.497226 -6.09205
upperback -1.98313 1.97869 3.69283
thorax 11.2595 0.55045 8.41282
lowerneck -1.60817 -2.61336 -1.74912
upperneck 30.2255 -2.17632 -3.73813
head 9.79738 -1.40667 -1.16649
rclavicle 8.74653e-015 -3.27995e-014
rhumerus 86.6108 -12.3882 -20.3593
rradius 31.9415
rwrist -16.6295
rhand -39.4521 3.56836
rfingers 7.12502
rthumb -12.4396 -26.0415
lclavicle 8.74653e-015 -3.27995e-014
lhumerus -265.426 4.761 -311.081
lradius 25.2101
lwrist 12.7047
lhand -40.09 -17.6364
lfingers 7.12502
lthumb -13.0545 11.935
rfemur -47.766 2.6699 17.3324
rtibia 22.1382
rfoot 1.6035 -9.05624
rtoes 5.92411
lfemur -50.8792 -12.2244 -13.4979
ltibia 29.3985
lfoot -5.73138 10.4139
ltoes -3.62135
1059
root -0.0403447 14.1945 7.08028 107.799 4.52247 0.523527
lowerback -24.5445 0.485486 -6.06926
upperback -1.8415 1.94938 3.66069
thorax 11.3417 0.527998 8.34936
lowerneck -1.30338 -2.54326 -2.02866
upperneck 29.917 -2.11569 -3.55558
head 9.63543 -1.38784 -1.03893
rclavicle -1.74931e-014 -4.42296e-015
rhumerus 86.638 -12.469 -20.3362
rradius 31.8852
rwrist -15.4041
rhand -39.1179 3.95252
rfingers 7.12502
rthumb -12.1174 -25.6766
lclavicle -1.74931e-014 -4.42296e-015
lhumerus -265.559 4.77329 -310.797
lradius 25.0857
lwrist 12.4694
lhand -40.2709 -17.1184
lfingers 7.12502
lthumb -13.2289 12.4418
rfemur -47.8619 2.32159 17.5108
rtibia 22.5083
rfoot 1.87573 -8.41153
rtoes 5.70462
lfemur -50.9586 -12.1622 -13.7503
ltibia 29.4528
lfoot -5.85477 10.2633
ltoes -3.76325
1060
root -0.0455818 14.1878 7.07179 107.394 4.43199 0.558749
lowerback -24.362 0.473168 -6.02635
upperback -1.69857 1.91188 3.63556
thorax 11.4169 0.502963 8.27851
lowerneck -0.988658 -2.4526 -2.31955
upperneck 29.5793 -2.04326 -3.32098
head 9.46254 -1.36003 -0.891057
rclavicle 8.74653e-015 -3.27995e-015
rhumerus 86.6531 -12.5119 -20.3421
rradius 31.7983
rwrist -14.1445
rhand -38.7494 4.35664
rfingers 7.12502
rthumb -11.762 -25.2931
lclavicle 8.74653e-015 -3.27995e-015
lhumerus -265.717 4.74561 -310.517
lradius 24.9279
lwrist 12.2165
lhand -40.4678 -16.4852
lfingers 7.12502
lthumb -13.4187 13.0627
rfemur -47.9255 1.88129 17.8226
rtibia 23.1114
rfoot 2.28363 -7.85105
rtoes 5.80005
lfemur -50.9374 -11.964 -14.1268
ltibia 29.6743
lfoot -5.90953 9.99702
ltoes -3.97352
1061
root -0.0516194 14.1803 7.06177 106.951 4.35867 0.594375
lowerback -24.1775 0.459854 -5.9797
upperback -1.55839 1.87104 3.61958
thorax 11.4878 0.476771 8.21488
lowerneck -0.707286 -2.35706 -2.60873
upperneck 29.2569 -1.96912 -3.06944
head 9.30225 -1.33008 -0.739685
rclavicle -2.46493e-014 -3.8117e-014
rhumerus 86.619 -12.5404 -20.2625
rradius 31.698
rwrist -12.9506
rhand -38.3759 4.75334
rfingers 7.12502
rthumb -11.4019 -24.9167
lclavicle -2.46493e-014 -3.8117e-014
lhumerus -265.923 4.68724 -310.285
lradius 24.7703
lwrist 11.9907
lhand -40.714 -15.7734
lfingers 7.12502
lthumb -13.656 13.7587
rfemur -47.9742 1.38522 18.2255
rtibia 23.932
rfoot 2.78011 -7.38625
rtoes 6.21097
lfemur -50.8336 -11.6671 -14.589
ltibia 30.0437
lfoot -5.90557 9.63355
ltoes -4.2267
1062
root -0.058504 14.172 7.05034 106.478 4.30353 0.622588
lowerback -23.9955 0.445306 -5.92656
upperback -1.42616 1.82605 3.61256
thorax 11.5511 0.449557 8.15638
lowerneck -0.560563 -2.3006 -2.82156
upperneck 29.0699 -1.91842 -2.93191
head 9.21345 -1.31465 -0.647269
rclavicle -2.22639e-014 -3.46382e-014
rhumerus 86.5359 -12.5566 -20.0801
rradius 31.5798
rwrist -11.8131
rhand -38.0251 5.14564
rfingers 7.12502
rthumb -11.0635 -24.5428
lclavicle -2.22639e-014 -3.46382e-014
lhumerus -266.206 4.61822 -310.155
lradius 24.6435
lwrist 11.8279
lhand -41.0447 -14.9814
lfingers 7.12502
lthumb -13.9747 14.5289
rfemur -48.0191 0.881264 18.6784
rtibia 24.9452
rfoot 3.33071 -7.02914
rtoes 6.82339
lfemur -50.6667 -11.3138 -15.0849
ltibia 30.5459
lfoot -5.86479 9.19761
ltoes -4.54262
